<?xml version="1.0" encoding="UTF-8"?>
<svg version="1.1" xmlns="http://www.w3.org/2000/svg" width="500" height="500">
<path d="M0 0 C165 0 330 0 500 0 C500 165 500 330 500 500 C335 500 170 500 0 500 C0 335 0 170 0 0 Z " fill="#FFFEFE" transform="translate(0,0)"/>
<path d="M0 0 C1.50917687 3.01835374 2.60144781 5.72004295 3.6875 8.875 C5.94496986 14.64219659 9.47431089 18.23715545 15 21 C17.61547725 21.10172285 20.20459129 21.14212669 22.8205204 21.1386652 C23.64168933 21.14150742 24.46285825 21.14434964 25.30891109 21.14727798 C28.09027882 21.15567134 30.87160516 21.15689681 33.65298462 21.15821838 C35.65523992 21.16278058 37.65749427 21.16778009 39.65974748 21.17318195 C45.18498999 21.18681148 50.71022631 21.19419529 56.23548126 21.20060861 C62.18506601 21.20859149 68.1346378 21.22229649 74.08421326 21.23532104 C84.3999655 21.25711386 94.7157194 21.27528267 105.0314827 21.29092598 C115.85366941 21.30735235 126.6758494 21.32582892 137.4980278 21.34705925 C138.17026851 21.34837686 138.84250922 21.34969446 139.53512086 21.351052 C142.94892478 21.35775384 146.36272863 21.36449247 149.77653246 21.37124526 C173.97275992 21.4190412 198.16899364 21.46221676 222.36523438 21.50268555 C245.87533016 21.54201729 269.38542075 21.5834354 292.89550781 21.62768555 C293.61986188 21.62904808 294.34421594 21.63041061 295.09052013 21.63181442 C302.36460993 21.64549949 309.63869964 21.65922706 316.9127893 21.67298577 C331.73168451 21.70101426 346.55058025 21.72875906 361.36947632 21.7563324 C362.39155764 21.7582347 362.39155764 21.7582347 363.43428707 21.76017542 C408.95618323 21.84486828 454.47809123 21.92231074 500 22 C500 74.14 500 126.28 500 180 C335 180 170 180 0 180 C0 120.6 0 61.2 0 0 Z " fill="#FFFEFE" transform="translate(0,320)"/>
<path d="M0 0 C20.53114005 8.71780056 20.53114005 8.71780056 27.21484375 11.8828125 C28.02244141 12.264375 28.83003906 12.6459375 29.66210938 13.0390625 C31.2419702 13.79305617 32.8172042 14.55679107 34.38867188 15.328125 C39.05319689 17.50973441 41.86879472 18.52799049 47 17 C61.26706202 13.39116256 80.51762968 10.54116821 94.3828125 17.1328125 C102.25089067 19.73984736 109.94087615 14.50569373 116.875 11.1875 C119.14300064 10.11800482 121.41122562 9.04898526 123.6796875 7.98046875 C125.29568848 7.21742432 125.29568848 7.21742432 126.94433594 6.43896484 C132.55371574 3.79741127 132.55371574 3.79741127 135.1328125 2.61328125 C136.15592529 2.14015503 136.15592529 2.14015503 137.19970703 1.6574707 C139 1 139 1 142 1 C142.00808685 1.76785828 142.01617371 2.53571655 142.02450562 3.32684326 C142.10247291 10.56608989 142.18976986 17.80513558 142.28752708 25.04413986 C142.33745556 28.76571684 142.38378574 32.48726591 142.421875 36.20898438 C142.45877163 39.80120413 142.50514317 43.39318843 142.55806351 46.9852066 C142.57658426 48.35507321 142.59170081 49.72499024 142.60334396 51.09493256 C142.62024532 53.01488656 142.65041426 54.93470986 142.68115234 56.85449219 C142.70113785 58.49330353 142.70113785 58.49330353 142.7215271 60.16522217 C142.99536721 62.95283949 143.56055693 64.62670059 145 67 C145.62003906 66.52691406 146.24007812 66.05382812 146.87890625 65.56640625 C157.88376175 57.34880673 169.37378396 50.61919166 181.75 44.6875 C182.60062012 44.27902832 183.45124023 43.87055664 184.32763672 43.44970703 C194.1382654 38.84618541 204.1192461 35.49796894 214.625 32.875 C215.57761719 32.62363281 216.53023438 32.37226563 217.51171875 32.11328125 C231.79219468 28.5196437 246.26159854 27.58437098 260.9375 27.625 C261.68846954 27.62554382 262.43943909 27.62608765 263.21316528 27.62664795 C314.29199474 27.79502711 360.20505844 48.35506049 396.26318359 84.25097656 C396.83633301 84.8281543 397.40948242 85.40533203 398 86 C398.52029785 86.52303711 399.0405957 87.04607422 399.57666016 87.58496094 C431.03022673 119.61154711 451.08735687 165.0120327 451 210 C404.84629669 210.06846119 358.6925889 210.13214525 312.53884888 210.16937256 C311.51450733 210.1702009 311.51450733 210.1702009 310.46947201 210.17104598 C295.62897893 210.18301711 280.78848531 210.19409791 265.94799089 210.20426132 C258.67040526 210.20925074 251.39281979 210.21443695 244.11523438 210.21972656 C243.02891315 210.22051112 243.02891315 210.22051112 241.92064604 210.22131152 C218.43918655 210.23836237 194.95776553 210.26841167 171.47632935 210.30518888 C147.34971588 210.34290803 123.2231237 210.36753916 99.09648125 210.37565996 C95.69016637 210.37681261 92.28385156 210.37811516 88.87753677 210.37950897 C87.87190161 210.37991351 87.87190161 210.37991351 86.84595058 210.38032622 C76.04616303 210.3850564 65.24644123 210.40361751 54.44668051 210.42732814 C43.59399215 210.45086062 32.74137219 210.45955182 21.88865952 210.45400551 C16.00646643 210.45143619 10.12446664 210.45545449 4.24230766 210.4768219 C-1.13913923 210.49622829 -6.52026208 210.49730843 -11.90172361 210.48359558 C-13.85202584 210.48189974 -15.80234796 210.48702379 -17.75261082 210.49953273 C-20.39790281 210.51551763 -23.04201548 210.50697596 -25.68728828 210.49219131 C-26.44963374 210.50269937 -27.2119792 210.51320742 -27.99742603 210.5240339 C-34.66112021 210.43951034 -38.15397282 207.88895805 -42.6875 203.25 C-45.26840894 199.62277663 -46.7313232 196.23463744 -48 192 C-48.27650391 191.07960938 -48.27650391 191.07960938 -48.55859375 190.140625 C-50.35698135 181.41924089 -49.50132849 172.70343972 -45 165 C-41.90836721 160.73196865 -38.97007695 157.00748186 -34 155 C-31.1272583 154.7215271 -31.1272583 154.7215271 -27.76269531 154.68115234 C-26.50169006 154.66128265 -25.24068481 154.64141296 -23.94146729 154.62094116 C-22.57035497 154.6090657 -21.1992408 154.59740279 -19.828125 154.5859375 C-18.42135487 154.56722131 -17.01459591 154.54764755 -15.60784912 154.5272522 C-11.91227817 154.47597239 -8.21667083 154.43632466 -4.52093506 154.39910889 C-0.74693839 154.35904307 3.02690749 154.30796252 6.80078125 154.2578125 C14.2004173 154.16110244 21.60012643 154.07668213 29 154 C28.11159424 153.26031982 27.22318848 152.52063965 26.30786133 151.75854492 C25.12828026 150.77018386 23.94884459 149.78164924 22.76953125 148.79296875 C22.18562622 148.30759644 21.60172119 147.82222412 21.00012207 147.32214355 C6.71925516 135.32179496 -2.87817082 116.54635877 -5 98 C-5.19960031 95.18587778 -5.27502588 92.38305243 -5.3125 89.5625 C-5.34150391 88.86962891 -5.37050781 88.17675781 -5.40039062 87.46289062 C-5.45221103 82.95451537 -4.7971207 78.98707643 -3.57070541 74.64136505 C-1.11067781 65.85632169 -0.39915235 57.58049273 -0.390625 48.4375 C-0.37558518 47.02545331 -0.3588463 45.61342382 -0.34051514 44.20141602 C-0.297478 40.54540039 -0.27698719 36.8896215 -0.26177979 33.23339844 C-0.24197439 29.47837678 -0.20003402 25.72360263 -0.16015625 21.96875 C-0.08554706 14.64590097 -0.03484102 7.32315798 0 0 Z " fill="#FFBD59" transform="translate(49,132)"/>
<path d="M0 0 C1.73948782 2.74655972 1.58519128 4.69346974 1.1875 7.875 C-1.28161519 11.47881886 -5.17528672 12.06719227 -9.1875 13.0625 C-9.8475 13.23974609 -10.5075 13.41699219 -11.1875 13.59960938 C-14.78829017 14.52849847 -18.09307582 15.19458489 -21.8125 14.875 C-23.625 13.75 -23.625 13.75 -24.8125 11.875 C-25.44677905 6.80076759 -25.44677905 6.80076759 -23.75 4.32421875 C-20.92550711 2.21154362 -17.80509652 1.52289798 -14.4375 0.6875 C-13.7775 0.51025391 -13.1175 0.33300781 -12.4375 0.15039062 C-3.48040844 -2.16025351 -3.48040844 -2.16025351 0 0 Z " fill="#FFFDFB" transform="translate(160.8125,217.125)"/>
<path d="M0 0 C2.7578125 1.03515625 2.7578125 1.03515625 4.7578125 3.03515625 C5.31713743 8.29281062 5.31713743 8.29281062 3.48046875 10.73046875 C1.7578125 12.03515625 1.7578125 12.03515625 -2.1171875 11.97265625 C-17.57487609 9.70246766 -17.57487609 9.70246766 -21.2421875 6.03515625 C-21.6938004 -0.06161794 -21.6938004 -0.06161794 -20.2421875 -2.96484375 C-14.39499153 -5.88844174 -5.77490404 -1.76194868 0 0 Z " fill="#FFFDFB" transform="translate(96.2421875,219.96484375)"/>
</svg>
