<?xml version="1.0" encoding="UTF-8"?>
<svg version="1.1" xmlns="http://www.w3.org/2000/svg" width="100" height="100">
<path d="M0 0 C1.18488007 -0.00960754 2.36976013 -0.01921509 3.59054565 -0.02911377 C4.87180328 -0.03336365 6.15306091 -0.03761353 7.47314453 -0.04199219 C8.78880402 -0.04769226 10.1044635 -0.05339233 11.45999146 -0.05926514 C14.2457925 -0.06976438 17.03156477 -0.0756141 19.81738281 -0.07910156 C23.38063961 -0.08458475 26.943514 -0.10861301 30.50665092 -0.13707352 C33.91214145 -0.16021762 37.31757943 -0.16215056 40.72314453 -0.16699219 C42.0003537 -0.17933899 43.27756287 -0.19168579 44.59347534 -0.20440674 C45.78465973 -0.20140564 46.97584412 -0.19840454 48.203125 -0.1953125 C49.24886688 -0.19895813 50.29460876 -0.20260376 51.37203979 -0.20635986 C55.58161503 0.33474991 58.07154076 1.98494768 61.01919556 4.97523499 C62.60280161 7.83190364 62.61179665 9.87488173 62.61914062 13.13549805 C62.62859711 14.34032333 62.63805359 15.54514862 62.64779663 16.78648376 C62.64172394 18.08445389 62.63565125 19.38242401 62.62939453 20.71972656 C62.63141663 22.06966814 62.6343292 23.41960866 62.63809204 24.76954651 C62.64251058 27.59655169 62.63610089 30.42327212 62.62207031 33.25024414 C62.60499463 36.86622307 62.61481158 40.48153315 62.6327877 44.09748745 C62.64365255 46.88484188 62.64016665 49.67203898 62.63240433 52.45939827 C62.62944121 54.43854839 62.63852259 56.41770472 62.64779663 58.39683533 C62.63361191 60.2088015 62.63361191 60.2088015 62.61914062 62.05737305 C62.61675385 63.11786362 62.61436707 64.17835419 62.61190796 65.27098083 C62.02256701 69.74212077 60.47157285 72.20187538 56.91821289 74.94937134 C53.80963601 76.35111866 51.63782473 76.54150449 48.23486328 76.54931641 C47.05013428 76.55877289 45.86540527 76.56822937 44.64477539 76.57797241 C43.37384033 76.57189972 42.10290527 76.56582703 40.79345703 76.55957031 C38.82421265 76.56387558 38.82421265 76.56387558 36.81518555 76.56826782 C34.04123299 76.57268142 31.26757102 76.56629166 28.49365234 76.55224609 C24.94607918 76.53515426 21.399187 76.54500069 17.85163879 76.56296349 C14.45719093 76.57643866 11.06292421 76.56699148 7.66845703 76.55957031 C6.39752197 76.56564301 5.12658691 76.5717157 3.81713867 76.57797241 C2.04004517 76.56378769 2.04004517 76.56378769 0.22705078 76.54931641 C-0.81265869 76.54692963 -1.85236816 76.54454285 -2.92358398 76.54208374 C-7.36350038 75.94766636 -9.82528798 74.38054739 -12.55529785 70.85313416 C-13.96454812 67.72751612 -14.16163892 65.51153662 -14.18896484 62.08911133 C-14.21283264 60.28682823 -14.21283264 60.28682823 -14.23718262 58.44813538 C-14.23738403 57.15846359 -14.23758545 55.86879181 -14.23779297 54.54003906 C-14.2449003 53.19392075 -14.25260014 51.84780544 -14.26086426 50.50169373 C-14.27428649 47.6848813 -14.2758881 44.86834906 -14.27001953 42.05151367 C-14.26412397 38.45217156 -14.2947164 34.85417863 -14.33513641 31.25509739 C-14.3610598 28.47626071 -14.36388679 25.697747 -14.36024475 22.91880608 C-14.36274831 20.95015425 -14.38741129 18.98157064 -14.41247559 17.01307678 C-14.33556709 7.05654789 -14.33556709 7.05654789 -11.41943359 3.36401367 C-7.58338924 0.17567282 -4.83316293 0.03160545 0 0 Z " fill="#0589D1" transform="translate(25.76904296875,11.8388671875)"/>
<path d="M0 0 C3.3 0 6.6 0 10 0 C10.33 0.99 10.66 1.98 11 3 C11.55945312 2.5153125 12.11890625 2.030625 12.6953125 1.53125 C16.5697255 -1.04293626 20.51491313 -0.76402111 25 0 C28.87962883 1.99523768 31.42877787 4.94691018 33 9 C33.22705078 11.84082031 33.22705078 11.84082031 33.1953125 15.078125 C33.18886719 16.23828125 33.18242188 17.3984375 33.17578125 18.59375 C33.15902344 19.8003125 33.14226562 21.006875 33.125 22.25 C33.11597656 23.47203125 33.10695312 24.6940625 33.09765625 25.953125 C33.07409513 28.96894782 33.04119706 31.98437492 33 35 C29.7 35 26.4 35 23 35 C22.97421875 33.45828125 22.9484375 31.9165625 22.921875 30.328125 C22.86559528 28.30205497 22.80824791 26.2760144 22.75 24.25 C22.73582031 23.23421875 22.72164062 22.2184375 22.70703125 21.171875 C22.59762505 15.38319374 22.59762505 15.38319374 20.15234375 10.2890625 C17.9617062 8.71044429 17.9617062 8.71044429 14.8125 9.125 C13.884375 9.41375 12.95625 9.7025 12 10 C10.74161443 12.51677113 10.79181027 14.41293288 10.68359375 17.2265625 C10.64169922 18.2578125 10.59980469 19.2890625 10.55664062 20.3515625 C10.49766602 21.97191406 10.49766602 21.97191406 10.4375 23.625 C10.39431641 24.71296875 10.35113281 25.8009375 10.30664062 26.921875 C10.20035573 29.6144257 10.09965496 32.30719576 10 35 C6.7 35 3.4 35 0 35 C0 23.45 0 11.9 0 0 Z " fill="#FDFEFE" transform="translate(42,40)"/>
<path d="M0 0 C3.3 0 6.6 0 10 0 C10 11.55 10 23.1 10 35 C6.7 35 3.4 35 0 35 C0 23.45 0 11.9 0 0 Z " fill="#FFFFFF" transform="translate(25,40)"/>
<path d="M0 0 C1 1 1 1 1.1875 3.9375 C1 7 1 7 -1 9 C-4 9.3125 -4 9.3125 -7 9 C-9 6 -9 6 -8.75 2.875 C-8.37875 1.451875 -8.37875 1.451875 -8 0 C-5.11795733 -1.44102133 -3.08226581 -0.65580124 0 0 Z " fill="#F7FBFD" transform="translate(34,26)"/>
</svg>
