<svg xmlns="http://www.w3.org/2000/svg" width="500" height="500" viewBox="0 0 500 500" version="1.1"><path d="M 241 116.112 C 237.975 117.197, 234.375 118.482, 233 118.967 C 231.625 119.453, 228.025 120.821, 225 122.007 C 221.975 123.193, 216.125 125.390, 212 126.887 C 207.875 128.385, 203.517 130.148, 202.316 130.805 C 201.114 131.462, 199.397 132, 198.500 132 C 197.603 132, 195.886 132.538, 194.684 133.195 C 192.772 134.240, 185.836 136.882, 174 141.072 C 170.395 142.348, 167.275 143.597, 160.716 146.389 C 158.635 147.275, 156.453 148, 155.867 148 C 155.281 148, 153.384 148.652, 151.651 149.449 C 149.918 150.246, 145.240 152.017, 141.256 153.386 C 133.328 156.109, 129.698 159.280, 127.961 165 C 127.235 167.393, 126.994 197.187, 127.199 259.177 C 127.497 348.919, 127.521 349.883, 129.560 352.677 C 131.564 355.423, 140.984 360.819, 144 360.948 C 144.825 360.983, 146.735 361.656, 148.244 362.444 C 149.753 363.231, 154.478 365.075, 158.744 366.540 C 163.010 368.006, 166.950 369.549, 167.500 369.969 C 168.050 370.388, 169.625 370.973, 171 371.267 C 172.375 371.562, 178.225 373.692, 184 376 C 189.775 378.308, 195.625 380.443, 197 380.744 C 198.375 381.045, 200.388 381.901, 201.473 382.646 C 202.557 383.390, 204.132 384.003, 204.973 384.006 C 205.813 384.010, 207.789 384.685, 209.364 385.506 C 210.940 386.328, 212.740 387.003, 213.364 387.006 C 213.989 387.010, 215.760 387.670, 217.301 388.473 C 218.841 389.277, 221.541 390.371, 223.301 390.906 C 228.909 392.610, 235.228 395.049, 240.536 397.560 C 245.793 400.047, 254.646 400.900, 256.550 399.104 C 257.702 398.017, 264.279 395.336, 281.500 388.932 C 284.800 387.705, 288.918 386.094, 290.651 385.351 C 292.384 384.608, 294.281 384, 294.867 384 C 295.453 384, 297.410 383.356, 299.216 382.570 C 301.022 381.783, 305.200 380.141, 308.500 378.920 C 311.800 377.700, 315.918 376.094, 317.651 375.351 C 319.384 374.608, 321.245 374, 321.787 374 C 322.328 374, 324.060 373.328, 325.636 372.506 C 327.211 371.685, 329.201 371.010, 330.059 371.006 C 330.916 371.003, 332.491 370.339, 333.559 369.532 C 334.626 368.724, 336.175 368.047, 337 368.026 C 337.825 368.005, 339.789 367.315, 341.364 366.494 C 342.940 365.672, 344.634 365, 345.130 365 C 347.367 365, 366.708 356.684, 368.596 354.910 C 369.756 353.820, 371.221 351.205, 371.852 349.098 C 373.476 343.681, 373.482 170.342, 371.860 164.926 C 370.202 159.392, 365.646 155.733, 357 152.993 C 352.875 151.686, 348.375 150.030, 347 149.314 C 345.625 148.598, 343.953 148.010, 343.284 148.006 C 342.615 148.003, 340.590 147.370, 338.784 146.601 C 335.332 145.130, 331.409 143.617, 321.500 139.932 C 318.200 138.705, 314.082 137.094, 312.349 136.351 C 310.616 135.608, 308.505 135, 307.658 135 C 306.811 135, 305.871 134.600, 305.568 134.111 C 305.266 133.622, 303.777 132.912, 302.259 132.534 C 300.742 132.155, 298.150 131.255, 296.500 130.533 C 294.850 129.811, 290.125 127.990, 286 126.486 C 281.875 124.982, 276.250 122.873, 273.500 121.800 C 270.750 120.728, 267.150 119.441, 265.500 118.940 C 263.850 118.440, 261.600 117.610, 260.500 117.097 C 252.896 113.552, 248.729 113.341, 241 116.112 M 241.500 145.608 C 238.200 146.946, 232.350 149.142, 228.500 150.488 C 224.650 151.835, 219.025 153.888, 216 155.050 C 212.975 156.213, 207.125 158.380, 203 159.867 C 198.875 161.353, 195.050 162.846, 194.500 163.183 C 193.950 163.521, 191.639 164.296, 189.365 164.906 C 184.547 166.198, 182.772 169.520, 186.353 170.545 C 188.978 171.296, 198.358 174.809, 202.651 176.649 C 204.384 177.392, 206.495 178, 207.342 178 C 208.189 178, 209.122 178.388, 209.415 178.863 C 209.709 179.337, 211.997 180.299, 214.500 181 C 217.003 181.701, 219.291 182.663, 219.585 183.137 C 219.878 183.612, 220.879 184.003, 221.809 184.006 C 222.739 184.010, 224.760 184.670, 226.301 185.473 C 227.841 186.277, 230.541 187.363, 232.301 187.888 C 234.060 188.412, 237.975 189.854, 241 191.092 C 249.175 194.438, 253.760 193.947, 265.651 188.455 C 267.384 187.655, 269.495 187, 270.342 187 C 271.189 187, 272.139 186.585, 272.452 186.077 C 272.766 185.569, 274.478 184.834, 276.257 184.443 C 278.036 184.053, 280.844 183.164, 282.496 182.467 C 285.718 181.110, 289.975 179.474, 299.500 175.932 C 302.800 174.705, 306.850 173.138, 308.500 172.449 C 310.150 171.761, 312.400 171.034, 313.500 170.835 C 314.688 170.620, 315.500 169.685, 315.500 168.534 C 315.500 166.620, 311.491 164.626, 302 161.821 C 300.075 161.252, 298.050 160.512, 297.500 160.178 C 296.950 159.843, 293.125 158.353, 289 156.867 C 284.875 155.380, 279.025 153.191, 276 152.003 C 272.975 150.814, 268.925 149.380, 267 148.817 C 265.075 148.253, 263.050 147.429, 262.500 146.986 C 261.950 146.542, 259.808 145.863, 257.739 145.476 C 255.670 145.090, 253.731 144.374, 253.430 143.887 C 252.500 142.383, 247.777 143.064, 241.500 145.608 M 155.667 188.667 C 155.300 189.033, 155 221.883, 155 261.667 C 155 332.667, 155.037 334.037, 157 336 C 158.100 337.100, 159.843 338, 160.873 338 C 162.569 338, 166.789 339.594, 175.651 343.582 C 177.384 344.362, 179.432 345, 180.201 345 C 180.971 345, 182.028 345.360, 182.550 345.800 C 183.073 346.240, 186.200 347.627, 189.500 348.882 C 192.800 350.137, 197.075 351.765, 199 352.500 C 200.925 353.235, 205.200 354.834, 208.500 356.052 C 214.888 358.411, 215.629 358.703, 223.686 362.042 C 226.538 363.224, 230.363 364.261, 232.186 364.346 L 235.500 364.500 235.757 293.197 C 235.933 244.099, 235.681 221.272, 234.946 219.899 C 234.359 218.802, 232.668 217.420, 231.189 216.828 C 222.672 213.419, 218.114 211.730, 215 210.828 C 213.075 210.270, 211.073 209.406, 210.550 208.907 C 210.028 208.408, 208.903 207.985, 208.050 207.966 C 207.198 207.947, 204.700 207.063, 202.500 206 C 200.300 204.937, 197.739 204.053, 196.809 204.034 C 195.879 204.015, 194.850 203.567, 194.523 203.037 C 194.196 202.507, 192.481 201.635, 190.714 201.098 C 186.158 199.715, 178.855 197.109, 176.500 196.027 C 175.400 195.521, 172.025 194.145, 169 192.969 C 165.975 191.792, 162.022 190.193, 160.216 189.415 C 156.413 187.776, 156.537 187.797, 155.667 188.667 M 341.211 190.605 C 340.501 191.372, 338.900 192, 337.652 192 C 336.404 192, 334.509 192.661, 333.441 193.468 C 332.374 194.276, 330.588 194.951, 329.473 194.968 C 328.357 194.986, 326.534 195.638, 325.421 196.417 C 324.308 197.197, 321.733 198.147, 319.699 198.529 C 317.665 198.910, 316 199.617, 316 200.099 C 316 200.582, 314.208 201.263, 312.019 201.613 C 309.829 201.963, 307.524 202.868, 306.896 203.625 C 306.269 204.381, 304.515 205, 303 205 C 301.485 205, 299.685 205.675, 299 206.500 C 298.315 207.325, 296.771 208, 295.569 208 C 294.366 208, 292.509 208.661, 291.441 209.468 C 290.374 210.276, 288.825 210.966, 288 211.002 C 287.175 211.038, 284.700 211.937, 282.500 213 C 280.300 214.063, 277.543 214.947, 276.372 214.966 C 275.202 214.985, 273.685 215.675, 273 216.500 C 272.315 217.325, 270.733 218, 269.485 218 C 268.236 218, 266.941 218.712, 266.607 219.582 C 265.555 222.322, 265.908 362.825, 266.968 363.480 C 267.501 363.810, 269.951 363.161, 272.413 362.039 C 274.876 360.918, 277.760 360, 278.823 360 C 279.886 360, 281.315 359.325, 282 358.500 C 282.685 357.675, 284.229 357, 285.431 357 C 286.634 357, 288.491 356.339, 289.559 355.532 C 290.626 354.724, 292.175 354.034, 293 353.998 C 293.825 353.962, 296.300 353.063, 298.500 352 C 300.700 350.937, 303.175 350.038, 304 350.002 C 304.825 349.966, 306.374 349.276, 307.441 348.468 C 308.509 347.661, 310.309 346.986, 311.441 346.968 C 312.574 346.951, 314.374 346.276, 315.441 345.468 C 316.509 344.661, 318.335 344, 319.500 344 C 320.665 344, 322.491 343.339, 323.559 342.532 C 324.626 341.724, 326.175 341.034, 327 340.998 C 327.825 340.962, 330.300 340.063, 332.500 339 C 334.700 337.937, 337.078 337.053, 337.785 337.034 C 338.492 337.015, 340.180 336.273, 341.535 335.385 L 344 333.770 344 261.944 C 344 222.440, 343.663 189.914, 343.250 189.664 C 342.837 189.414, 341.920 189.838, 341.211 190.605 M 326.686 223.017 C 325.138 223.481, 323.338 224.280, 322.686 224.793 C 322.034 225.305, 320.177 226.041, 318.561 226.429 C 316.945 226.816, 314.345 228.042, 312.784 229.154 L 309.946 231.175 310.223 245.337 C 310.496 259.303, 310.532 259.505, 312.823 259.829 C 314.101 260.010, 316.644 259.448, 318.474 258.579 C 320.305 257.711, 322.565 257, 323.497 257 C 325.378 257, 331.089 254.059, 332.235 252.500 C 333.368 250.957, 333.134 226.118, 331.965 223.934 C 330.829 221.811, 330.748 221.797, 326.686 223.017 M 168.465 224.232 C 168.176 224.985, 168.065 231.605, 168.220 238.943 C 168.444 249.630, 168.799 252.425, 170 252.987 C 170.825 253.373, 172.415 254.152, 173.533 254.717 C 174.651 255.283, 177.111 256.085, 179 256.500 C 180.889 256.915, 183.264 257.760, 184.278 258.377 C 187.818 260.533, 189 256.894, 189 243.845 L 189 232.072 185.268 229.536 C 183.215 228.141, 180.943 227, 180.218 227 C 179.494 227, 177.686 226.382, 176.200 225.627 C 171.401 223.186, 169.030 222.758, 168.465 224.232 M 292.058 235.591 C 289.615 236.357, 287.162 237.438, 286.608 237.992 C 286.054 238.546, 284.600 239, 283.377 239 C 282.154 239, 279.769 240.165, 278.077 241.589 L 275 244.178 275 257.007 C 275 264.063, 275.273 270.548, 275.607 271.418 C 276.389 273.455, 282.771 273.487, 285.441 271.468 C 286.509 270.661, 288.331 270, 289.491 270 C 290.651 270, 292.102 269.498, 292.716 268.884 C 293.330 268.270, 294.863 267.254, 296.123 266.626 C 297.383 265.998, 298.726 264.363, 299.107 262.992 C 300.180 259.138, 300.118 239.441, 299.025 236.565 C 297.925 233.673, 298.096 233.697, 292.058 235.591 M 203.220 236.829 C 202.260 237.449, 202.010 241.014, 202.220 251.064 L 202.500 264.473 206.500 266.534 C 211.866 269.299, 219.172 272, 221.283 272 C 222.823 272, 223 270.567, 223 258.073 C 223 244.218, 222.986 244.134, 220.365 242.073 C 218.916 240.933, 216.991 240, 216.088 240 C 215.184 240, 213.557 239.382, 212.473 238.628 C 209.825 236.786, 204.801 235.809, 203.220 236.829 M 325.823 281.709 C 324.351 281.934, 322.608 282.767, 321.951 283.559 C 321.293 284.352, 319.785 285, 318.600 285 C 316.452 285, 312.160 287.433, 310.765 289.442 C 310.361 290.024, 310.024 296.672, 310.015 304.215 C 309.995 322.641, 309.858 322.564, 327.750 314.260 C 329.813 313.302, 331.831 312.065, 332.235 311.510 C 332.639 310.954, 332.976 304.402, 332.985 296.950 C 333 283.674, 332.364 280.748, 329.550 281.150 C 328.973 281.232, 327.295 281.484, 325.823 281.709 M 168.702 282.632 C 168.316 283.018, 168 289.556, 168 297.162 L 168 310.990 172.250 312.912 C 184.491 318.447, 186.269 319.022, 187.640 317.883 C 188.658 317.039, 189 313.513, 189 303.878 C 189 289.699, 188.268 287.798, 182.275 286.406 C 180.749 286.052, 178.593 285.200, 177.485 284.512 C 174.834 282.868, 169.589 281.744, 168.702 282.632 M 288.441 296.468 C 287.374 297.276, 285.363 297.951, 283.973 297.968 C 281.504 297.999, 277.234 300.327, 275.765 302.442 C 274.882 303.714, 274.744 328.168, 275.607 330.418 C 276.385 332.445, 279.914 332.433, 284.716 330.389 C 299.016 324.302, 298.347 324.696, 299.128 321.905 C 299.986 318.838, 300.197 298.677, 299.393 296.582 C 298.602 294.520, 291.120 294.442, 288.441 296.468 M 202 308.566 C 202 320.614, 202.836 325, 205.134 325 C 205.719 325, 207.616 325.647, 209.349 326.438 C 215.377 329.187, 220.253 331, 221.622 331 C 222.726 331, 223 328.250, 223 317.155 C 223 305.234, 222.757 303.092, 221.250 301.741 C 219.102 299.815, 207.992 296, 204.532 296 L 202 296 202 308.566" stroke="none" fill="#0b0a07" fill-rule="evenodd"/><path d="M 0 250.002 L 0 500.004 250.250 499.752 L 500.500 499.500 500.752 249.750 L 501.004 0 250.502 0 L 0 0 0 250.002 M 0.492 250.500 C 0.492 388, 0.608 444.101, 0.750 375.170 C 0.892 306.238, 0.892 193.738, 0.750 125.170 C 0.608 56.601, 0.492 113, 0.492 250.500 M 241 116.112 C 237.975 117.197, 234.375 118.482, 233 118.967 C 231.625 119.453, 228.025 120.821, 225 122.007 C 221.975 123.193, 216.125 125.390, 212 126.887 C 207.875 128.385, 203.517 130.148, 202.316 130.805 C 201.114 131.462, 199.397 132, 198.500 132 C 197.603 132, 195.886 132.538, 194.684 133.195 C 192.772 134.240, 185.836 136.882, 174 141.072 C 170.395 142.348, 167.275 143.597, 160.716 146.389 C 158.635 147.275, 156.453 148, 155.867 148 C 155.281 148, 153.384 148.652, 151.651 149.449 C 149.918 150.246, 145.240 152.017, 141.256 153.386 C 133.328 156.109, 129.698 159.280, 127.961 165 C 127.235 167.393, 126.994 197.187, 127.199 259.177 C 127.497 348.919, 127.521 349.883, 129.560 352.677 C 131.564 355.423, 140.984 360.819, 144 360.948 C 144.825 360.983, 146.735 361.656, 148.244 362.444 C 149.753 363.231, 154.478 365.075, 158.744 366.540 C 163.010 368.006, 166.950 369.549, 167.500 369.969 C 168.050 370.388, 169.625 370.973, 171 371.267 C 172.375 371.562, 178.225 373.692, 184 376 C 189.775 378.308, 195.625 380.443, 197 380.744 C 198.375 381.045, 200.388 381.901, 201.473 382.646 C 202.557 383.390, 204.132 384.003, 204.973 384.006 C 205.813 384.010, 207.789 384.685, 209.364 385.506 C 210.940 386.328, 212.740 387.003, 213.364 387.006 C 213.989 387.010, 215.760 387.670, 217.301 388.473 C 218.841 389.277, 221.541 390.371, 223.301 390.906 C 228.909 392.610, 235.228 395.049, 240.536 397.560 C 245.793 400.047, 254.646 400.900, 256.550 399.104 C 257.702 398.017, 264.279 395.336, 281.500 388.932 C 284.800 387.705, 288.918 386.094, 290.651 385.351 C 292.384 384.608, 294.281 384, 294.867 384 C 295.453 384, 297.410 383.356, 299.216 382.570 C 301.022 381.783, 305.200 380.141, 308.500 378.920 C 311.800 377.700, 315.918 376.094, 317.651 375.351 C 319.384 374.608, 321.245 374, 321.787 374 C 322.328 374, 324.060 373.328, 325.636 372.506 C 327.211 371.685, 329.201 371.010, 330.059 371.006 C 330.916 371.003, 332.491 370.339, 333.559 369.532 C 334.626 368.724, 336.175 368.047, 337 368.026 C 337.825 368.005, 339.789 367.315, 341.364 366.494 C 342.940 365.672, 344.634 365, 345.130 365 C 347.367 365, 366.708 356.684, 368.596 354.910 C 369.756 353.820, 371.221 351.205, 371.852 349.098 C 373.476 343.681, 373.482 170.342, 371.860 164.926 C 370.202 159.392, 365.646 155.733, 357 152.993 C 352.875 151.686, 348.375 150.030, 347 149.314 C 345.625 148.598, 343.953 148.010, 343.284 148.006 C 342.615 148.003, 340.590 147.370, 338.784 146.601 C 335.332 145.130, 331.409 143.617, 321.500 139.932 C 318.200 138.705, 314.082 137.094, 312.349 136.351 C 310.616 135.608, 308.505 135, 307.658 135 C 306.811 135, 305.871 134.600, 305.568 134.111 C 305.266 133.622, 303.777 132.912, 302.259 132.534 C 300.742 132.155, 298.150 131.255, 296.500 130.533 C 294.850 129.811, 290.125 127.990, 286 126.486 C 281.875 124.982, 276.250 122.873, 273.500 121.800 C 270.750 120.728, 267.150 119.441, 265.500 118.940 C 263.850 118.440, 261.600 117.610, 260.500 117.097 C 252.896 113.552, 248.729 113.341, 241 116.112 M 241.500 145.608 C 238.200 146.946, 232.350 149.142, 228.500 150.488 C 224.650 151.835, 219.025 153.888, 216 155.050 C 212.975 156.213, 207.125 158.380, 203 159.867 C 198.875 161.353, 195.050 162.846, 194.500 163.183 C 193.950 163.521, 191.639 164.296, 189.365 164.906 C 184.547 166.198, 182.772 169.520, 186.353 170.545 C 188.978 171.296, 198.358 174.809, 202.651 176.649 C 204.384 177.392, 206.495 178, 207.342 178 C 208.189 178, 209.122 178.388, 209.415 178.863 C 209.709 179.337, 211.997 180.299, 214.500 181 C 217.003 181.701, 219.291 182.663, 219.585 183.137 C 219.878 183.612, 220.879 184.003, 221.809 184.006 C 222.739 184.010, 224.760 184.670, 226.301 185.473 C 227.841 186.277, 230.541 187.363, 232.301 187.888 C 234.060 188.412, 237.975 189.854, 241 191.092 C 249.175 194.438, 253.760 193.947, 265.651 188.455 C 267.384 187.655, 269.495 187, 270.342 187 C 271.189 187, 272.139 186.585, 272.452 186.077 C 272.766 185.569, 274.478 184.834, 276.257 184.443 C 278.036 184.053, 280.844 183.164, 282.496 182.467 C 285.718 181.110, 289.975 179.474, 299.500 175.932 C 302.800 174.705, 306.850 173.138, 308.500 172.449 C 310.150 171.761, 312.400 171.034, 313.500 170.835 C 314.688 170.620, 315.500 169.685, 315.500 168.534 C 315.500 166.620, 311.491 164.626, 302 161.821 C 300.075 161.252, 298.050 160.512, 297.500 160.178 C 296.950 159.843, 293.125 158.353, 289 156.867 C 284.875 155.380, 279.025 153.191, 276 152.003 C 272.975 150.814, 268.925 149.380, 267 148.817 C 265.075 148.253, 263.050 147.429, 262.500 146.986 C 261.950 146.542, 259.808 145.863, 257.739 145.476 C 255.670 145.090, 253.731 144.374, 253.430 143.887 C 252.500 142.383, 247.777 143.064, 241.500 145.608 M 155.667 188.667 C 155.300 189.033, 155 221.883, 155 261.667 C 155 332.667, 155.037 334.037, 157 336 C 158.100 337.100, 159.843 338, 160.873 338 C 162.569 338, 166.789 339.594, 175.651 343.582 C 177.384 344.362, 179.432 345, 180.201 345 C 180.971 345, 182.028 345.360, 182.550 345.800 C 183.073 346.240, 186.200 347.627, 189.500 348.882 C 192.800 350.137, 197.075 351.765, 199 352.500 C 200.925 353.235, 205.200 354.834, 208.500 356.052 C 214.888 358.411, 215.629 358.703, 223.686 362.042 C 226.538 363.224, 230.363 364.261, 232.186 364.346 L 235.500 364.500 235.757 293.197 C 235.933 244.099, 235.681 221.272, 234.946 219.899 C 234.359 218.802, 232.668 217.420, 231.189 216.828 C 222.672 213.419, 218.114 211.730, 215 210.828 C 213.075 210.270, 211.073 209.406, 210.550 208.907 C 210.028 208.408, 208.903 207.985, 208.050 207.966 C 207.198 207.947, 204.700 207.063, 202.500 206 C 200.300 204.937, 197.739 204.053, 196.809 204.034 C 195.879 204.015, 194.850 203.567, 194.523 203.037 C 194.196 202.507, 192.481 201.635, 190.714 201.098 C 186.158 199.715, 178.855 197.109, 176.500 196.027 C 175.400 195.521, 172.025 194.145, 169 192.969 C 165.975 191.792, 162.022 190.193, 160.216 189.415 C 156.413 187.776, 156.537 187.797, 155.667 188.667 M 341.211 190.605 C 340.501 191.372, 338.900 192, 337.652 192 C 336.404 192, 334.509 192.661, 333.441 193.468 C 332.374 194.276, 330.588 194.951, 329.473 194.968 C 328.357 194.986, 326.534 195.638, 325.421 196.417 C 324.308 197.197, 321.733 198.147, 319.699 198.529 C 317.665 198.910, 316 199.617, 316 200.099 C 316 200.582, 314.208 201.263, 312.019 201.613 C 309.829 201.963, 307.524 202.868, 306.896 203.625 C 306.269 204.381, 304.515 205, 303 205 C 301.485 205, 299.685 205.675, 299 206.500 C 298.315 207.325, 296.771 208, 295.569 208 C 294.366 208, 292.509 208.661, 291.441 209.468 C 290.374 210.276, 288.825 210.966, 288 211.002 C 287.175 211.038, 284.700 211.937, 282.500 213 C 280.300 214.063, 277.543 214.947, 276.372 214.966 C 275.202 214.985, 273.685 215.675, 273 216.500 C 272.315 217.325, 270.733 218, 269.485 218 C 268.236 218, 266.941 218.712, 266.607 219.582 C 265.555 222.322, 265.908 362.825, 266.968 363.480 C 267.501 363.810, 269.951 363.161, 272.413 362.039 C 274.876 360.918, 277.760 360, 278.823 360 C 279.886 360, 281.315 359.325, 282 358.500 C 282.685 357.675, 284.229 357, 285.431 357 C 286.634 357, 288.491 356.339, 289.559 355.532 C 290.626 354.724, 292.175 354.034, 293 353.998 C 293.825 353.962, 296.300 353.063, 298.500 352 C 300.700 350.937, 303.175 350.038, 304 350.002 C 304.825 349.966, 306.374 349.276, 307.441 348.468 C 308.509 347.661, 310.309 346.986, 311.441 346.968 C 312.574 346.951, 314.374 346.276, 315.441 345.468 C 316.509 344.661, 318.335 344, 319.500 344 C 320.665 344, 322.491 343.339, 323.559 342.532 C 324.626 341.724, 326.175 341.034, 327 340.998 C 327.825 340.962, 330.300 340.063, 332.500 339 C 334.700 337.937, 337.078 337.053, 337.785 337.034 C 338.492 337.015, 340.180 336.273, 341.535 335.385 L 344 333.770 344 261.944 C 344 222.440, 343.663 189.914, 343.250 189.664 C 342.837 189.414, 341.920 189.838, 341.211 190.605 M 326.686 223.017 C 325.138 223.481, 323.338 224.280, 322.686 224.793 C 322.034 225.305, 320.177 226.041, 318.561 226.429 C 316.945 226.816, 314.345 228.042, 312.784 229.154 L 309.946 231.175 310.223 245.337 C 310.496 259.303, 310.532 259.505, 312.823 259.829 C 314.101 260.010, 316.644 259.448, 318.474 258.579 C 320.305 257.711, 322.565 257, 323.497 257 C 325.378 257, 331.089 254.059, 332.235 252.500 C 333.368 250.957, 333.134 226.118, 331.965 223.934 C 330.829 221.811, 330.748 221.797, 326.686 223.017 M 168.465 224.232 C 168.176 224.985, 168.065 231.605, 168.220 238.943 C 168.444 249.630, 168.799 252.425, 170 252.987 C 170.825 253.373, 172.415 254.152, 173.533 254.717 C 174.651 255.283, 177.111 256.085, 179 256.500 C 180.889 256.915, 183.264 257.760, 184.278 258.377 C 187.818 260.533, 189 256.894, 189 243.845 L 189 232.072 185.268 229.536 C 183.215 228.141, 180.943 227, 180.218 227 C 179.494 227, 177.686 226.382, 176.200 225.627 C 171.401 223.186, 169.030 222.758, 168.465 224.232 M 292.058 235.591 C 289.615 236.357, 287.162 237.438, 286.608 237.992 C 286.054 238.546, 284.600 239, 283.377 239 C 282.154 239, 279.769 240.165, 278.077 241.589 L 275 244.178 275 257.007 C 275 264.063, 275.273 270.548, 275.607 271.418 C 276.389 273.455, 282.771 273.487, 285.441 271.468 C 286.509 270.661, 288.331 270, 289.491 270 C 290.651 270, 292.102 269.498, 292.716 268.884 C 293.330 268.270, 294.863 267.254, 296.123 266.626 C 297.383 265.998, 298.726 264.363, 299.107 262.992 C 300.180 259.138, 300.118 239.441, 299.025 236.565 C 297.925 233.673, 298.096 233.697, 292.058 235.591 M 203.220 236.829 C 202.260 237.449, 202.010 241.014, 202.220 251.064 L 202.500 264.473 206.500 266.534 C 211.866 269.299, 219.172 272, 221.283 272 C 222.823 272, 223 270.567, 223 258.073 C 223 244.218, 222.986 244.134, 220.365 242.073 C 218.916 240.933, 216.991 240, 216.088 240 C 215.184 240, 213.557 239.382, 212.473 238.628 C 209.825 236.786, 204.801 235.809, 203.220 236.829 M 325.823 281.709 C 324.351 281.934, 322.608 282.767, 321.951 283.559 C 321.293 284.352, 319.785 285, 318.600 285 C 316.452 285, 312.160 287.433, 310.765 289.442 C 310.361 290.024, 310.024 296.672, 310.015 304.215 C 309.995 322.641, 309.858 322.564, 327.750 314.260 C 329.813 313.302, 331.831 312.065, 332.235 311.510 C 332.639 310.954, 332.976 304.402, 332.985 296.950 C 333 283.674, 332.364 280.748, 329.550 281.150 C 328.973 281.232, 327.295 281.484, 325.823 281.709 M 168.702 282.632 C 168.316 283.018, 168 289.556, 168 297.162 L 168 310.990 172.250 312.912 C 184.491 318.447, 186.269 319.022, 187.640 317.883 C 188.658 317.039, 189 313.513, 189 303.878 C 189 289.699, 188.268 287.798, 182.275 286.406 C 180.749 286.052, 178.593 285.200, 177.485 284.512 C 174.834 282.868, 169.589 281.744, 168.702 282.632 M 288.441 296.468 C 287.374 297.276, 285.363 297.951, 283.973 297.968 C 281.504 297.999, 277.234 300.327, 275.765 302.442 C 274.882 303.714, 274.744 328.168, 275.607 330.418 C 276.385 332.445, 279.914 332.433, 284.716 330.389 C 299.016 324.302, 298.347 324.696, 299.128 321.905 C 299.986 318.838, 300.197 298.677, 299.393 296.582 C 298.602 294.520, 291.120 294.442, 288.441 296.468 M 202 308.566 C 202 320.614, 202.836 325, 205.134 325 C 205.719 325, 207.616 325.647, 209.349 326.438 C 215.377 329.187, 220.253 331, 221.622 331 C 222.726 331, 223 328.250, 223 317.155 C 223 305.234, 222.757 303.092, 221.250 301.741 C 219.102 299.815, 207.992 296, 204.532 296 L 202 296 202 308.566" stroke="none" fill="#cebd89" fill-rule="evenodd"/></svg>