<?xml version="1.0" encoding="UTF-8"?>
<svg version="1.1" xmlns="http://www.w3.org/2000/svg" width="100" height="100">
<path d="M0 0 C0.96862473 -0.00744736 0.96862473 -0.00744736 1.95681763 -0.01504517 C4.09711772 -0.02967183 6.23734365 -0.03647022 8.37768555 -0.04199219 C9.86500552 -0.04774404 11.35232546 -0.05350176 12.83964539 -0.05926514 C15.96097153 -0.06977711 19.08227192 -0.07561822 22.20361328 -0.07910156 C26.19846712 -0.08458119 30.19297924 -0.10859669 34.18772602 -0.13707352 C37.26156092 -0.15572243 40.33531397 -0.16090673 43.40920067 -0.16243744 C44.88157198 -0.16546035 46.35394198 -0.17347673 47.82625771 -0.18662262 C49.88964213 -0.20372804 51.95219793 -0.20179233 54.015625 -0.1953125 C55.18873734 -0.19895813 56.36184967 -0.20260376 57.57051086 -0.20635986 C62.26124834 0.34413362 65.69334479 2.5508614 68.7019043 6.16113281 C69.80864071 9.48134205 69.84228168 11.98299394 69.86303711 15.48095703 C69.87264465 16.78596161 69.8822522 18.09096619 69.89215088 19.43551636 C69.89699875 20.86228256 69.90127761 22.2890508 69.9050293 23.71582031 C69.91078295 25.17929079 69.91654066 26.64276125 69.92230225 28.10623169 C69.93280396 31.17450308 69.9386521 34.24274833 69.94213867 37.31103516 C69.94762282 41.23748136 69.97165229 45.16358069 70.00011063 49.08991814 C70.01875852 52.11313885 70.02394373 55.13627635 70.02547455 58.15954971 C70.02849658 59.60680158 70.03650998 61.05405213 70.04965973 62.50124741 C70.06676384 64.52826802 70.06298886 66.55543206 70.05834961 68.58251953 C70.06381805 70.31101639 70.06381805 70.31101639 70.06939697 72.07443237 C69.47911714 77.03240061 67.75028868 79.29815167 63.93067932 82.442276 C60.29860674 84.37583057 58.12984686 84.662248 54.04150391 84.6628418 C52.73672592 84.67222275 51.43194794 84.6816037 50.08763123 84.69126892 C48.67649677 84.68079106 47.2653687 84.66942211 45.85424805 84.65722656 C44.39506458 84.65738169 42.93588069 84.65887289 41.47669983 84.66163635 C38.42617464 84.66301733 35.37612135 84.65051215 32.32568359 84.62768555 C28.42277526 84.59927595 24.52064889 84.60204882 20.61768246 84.61477566 C17.60727805 84.62174172 14.59705329 84.6139335 11.58667183 84.60151863 C10.14781954 84.59701489 8.7089479 84.5966579 7.27009392 84.60058403 C5.25766686 84.60350566 3.24524379 84.58479548 1.23291016 84.56518555 C0.08962753 84.55978256 -1.05365509 84.55437958 -2.23158264 84.54881287 C-6.89026255 83.95984512 -9.29457493 82.16054008 -12.57626343 78.89230347 C-14.70533819 75.51516471 -14.81625403 73.43813924 -14.84741211 69.46240234 C-14.85763397 68.80967346 -14.86785583 68.15694458 -14.87838745 67.48443604 C-14.90607546 65.33722751 -14.90427463 63.1913106 -14.8996582 61.04394531 C-14.9074388 59.5432793 -14.91610952 58.04261766 -14.92562866 56.54196167 C-14.94053106 53.39973667 -14.93998793 50.25796114 -14.92944336 47.11572266 C-14.91786395 43.1015266 -14.95169481 39.0891793 -14.99813271 35.07528877 C-15.02769362 31.97640341 -15.02933941 28.87795876 -15.02311325 25.77895737 C-15.02413569 24.29984759 -15.03453651 22.82071184 -15.05473709 21.34173965 C-15.2102688 8.36087001 -15.2102688 8.36087001 -11.37768555 3.76220703 C-7.65864402 0.23955898 -5.09561758 0.02971908 0 0 Z M4.7019043 18.16113281 C7.79675146 23.18257357 10.88577203 28.14147205 14.46362305 32.83300781 C15.1589917 33.75605713 15.1589917 33.75605713 15.8684082 34.69775391 C16.7891342 35.91025246 17.72483085 37.11154655 18.67602539 38.30029297 C19.95581055 39.99707031 19.95581055 39.99707031 21.7019043 43.16113281 C20.96957374 47.63648624 17.94891922 50.33442154 14.8894043 53.53613281 C11.11345731 57.57437423 7.76545723 61.56580341 4.7019043 66.16113281 C6.0219043 66.16113281 7.3419043 66.16113281 8.7019043 66.16113281 C10.97119934 63.97157978 10.97119934 63.97157978 13.0769043 61.09863281 C13.85936523 60.09960938 14.64182617 59.10058594 15.44799805 58.07128906 C16.19178711 57.1109375 16.93557617 56.15058594 17.7019043 55.16113281 C23.2584388 48.38286556 23.2584388 48.38286556 25.7019043 47.16113281 C26.06735352 47.91136719 26.06735352 47.91136719 26.44018555 48.67675781 C26.85655273 49.49660156 27.27291992 50.31644531 27.7019043 51.16113281 C27.98598145 51.73412109 28.27005859 52.30710938 28.56274414 52.89746094 C32.57755033 61.37074258 32.57755033 61.37074258 39.63891602 66.85400391 C44.06662785 67.47243461 48.31041046 66.9516017 52.7019043 66.16113281 C46.79248074 56.52710779 40.27023491 47.35226244 33.7019043 38.16113281 C35.05344258 35.20713775 36.5987028 32.92555805 38.7409668 30.48925781 C39.32104492 29.82539062 39.90112305 29.16152344 40.4987793 28.47753906 C41.10206055 27.795625 41.7053418 27.11371094 42.3269043 26.41113281 C43.24342773 25.36505859 43.24342773 25.36505859 44.1784668 24.29785156 C45.68254233 22.58226541 47.19042927 20.87019873 48.7019043 19.16113281 C47.3819043 18.83113281 46.0619043 18.50113281 44.7019043 18.16113281 C44.08702148 18.92039062 43.47213867 19.67964844 42.83862305 20.46191406 C42.03038086 21.45578125 41.22213867 22.44964844 40.3894043 23.47363281 C39.18864258 24.95283203 39.18864258 24.95283203 37.96362305 26.46191406 C35.7019043 29.16113281 35.7019043 29.16113281 33.90893555 30.89160156 C32.47222349 32.11074786 32.47222349 32.11074786 32.7019043 34.16113281 C28.89471261 32.89206892 28.4771597 31.12884596 26.64282227 27.73754883 C23.35180726 21.42149967 23.35180726 21.42149967 17.76928711 17.45507812 C13.34348296 16.84020823 9.0901544 17.37124779 4.7019043 18.16113281 Z " fill="#000000" transform="translate(22.298095703125,7.8388671875)"/>
<path d="M0 0 C2.93975041 -0.31207542 5.13542853 -0.51986174 8 0 C10.21885412 2.1223822 11.52437756 3.7178153 13.125 6.25 C13.57166016 6.90661621 14.01832031 7.56323242 14.47851562 8.23974609 C15.46238483 9.68710471 16.43551825 11.1418028 17.39941406 12.60253906 C19.12761761 15.19115389 20.91149522 17.73386471 22.7109375 20.2734375 C33.14445062 35.00278859 33.14445062 35.00278859 36 40 C33.07408189 40.30065048 30.85432178 40.5021739 28 40 C25.81385827 37.94073257 24.56379704 36.4139905 23 33.9375 C22.55994629 33.29079346 22.11989258 32.64408691 21.66650391 31.9777832 C20.66865449 30.50977042 19.68190315 29.03417591 18.70410156 27.55273438 C16.76976708 24.6551124 14.77662077 21.80356801 12.7734375 18.953125 C9.90916748 14.87541257 7.05000469 10.79453175 4.2109375 6.69921875 C3.61587402 5.84158936 3.02081055 4.98395996 2.40771484 4.1003418 C1 2 1 2 0 0 Z " fill="#000000" transform="translate(33,30)"/>
</svg>
