<?xml version="1.0" encoding="UTF-8"?>
<svg version="1.1" xmlns="http://www.w3.org/2000/svg" width="100" height="100">
<path d="M0 0 C1.29744141 0.10501831 1.29744141 0.10501831 2.62109375 0.2121582 C7.8609211 0.72700409 12.01750339 1.71016068 16.6875 4.1875 C21.98035874 11.95035949 20.87029465 22.00807232 20.875 31 C20.88724609 32.22009766 20.89949219 33.44019531 20.91210938 34.69726562 C20.93933232 51.58456828 20.93933232 51.58456828 16.8125 58.1875 C12.0401296 61.24181706 7.25438554 61.61755696 1.6875 62.1875 C0.7078125 62.29835937 -0.271875 62.40921875 -1.28125 62.5234375 C-15.02433514 63.83398943 -28.88690268 63.57441545 -42.625 62.375 C-43.48996094 62.30498779 -44.35492188 62.23497559 -45.24609375 62.1628418 C-50.48649723 61.6479393 -54.63995331 60.66013171 -59.3125 58.1875 C-64.58681466 50.62764898 -63.4949346 40.20399709 -63.5 31.375 C-63.51224609 30.26318359 -63.52449219 29.15136719 -63.53710938 28.00585938 C-63.5671896 10.87015967 -63.5671896 10.87015967 -59.4375 4.125 C-54.6494991 1.15643944 -49.85190725 0.75462979 -44.3125 0.1875 C-43.3328125 0.07664062 -42.353125 -0.03421875 -41.34375 -0.1484375 C-27.60066486 -1.45898943 -13.73809732 -1.19941545 0 0 Z " fill="#FF3D00" transform="translate(71.3125,18.8125)"/>
<path d="M0 0 C5.25891989 2.10356796 9.9211074 4.67678011 14.8125 7.5 C15.69615234 7.99886719 16.57980469 8.49773438 17.49023438 9.01171875 C18.32490234 9.49253906 19.15957031 9.97335938 20.01953125 10.46875 C20.78370361 10.90638672 21.54787598 11.34402344 22.33520508 11.79492188 C22.8845874 12.19259766 23.43396973 12.59027344 24 13 C24 13.66 24 14.32 24 15 C22.01220703 16.42041016 22.01220703 16.42041016 19.2578125 18.0390625 C18.27425781 18.61914062 17.29070313 19.19921875 16.27734375 19.796875 C15.23707031 20.40015625 14.19679688 21.0034375 13.125 21.625 C12.09246094 22.23601563 11.05992188 22.84703125 9.99609375 23.4765625 C2.27192034 28 2.27192034 28 0 28 C0 18.76 0 9.52 0 0 Z " fill="#FFFBFA" transform="translate(42,36)"/>
</svg>
